<svg viewBox="0 0 80 107" version="1.1" xmlns="http://www.w3.org/2000/svg">
  <path
    d="M 31.3 14.24 L 31.37 14.29 L 31.45 14.34 L 31.55 14.37 L 31.64 14.39 L 62.88 14.39 L 62.98 14.37 L 63.08 14.34 L 63.19 14.29 L 63.27 14.24 L 71.99 6.77 L 72.04 6.7 L 72.06 6.63 L 72.04 6.57 L 71.99 6.52 L 71.16 6.03 L 71.08 5.99 L 70.99 5.94 L 70.89 5.9 L 70.8 5.87 L 69.79 5.55 L 69.7 5.52 L 69.59 5.5 L 69.49 5.48 L 69.39 5.47 L 68.31 5.36 L 68.21 5.35 L 68.1 5.34 L 67.98 5.34 L 67.89 5.34 L 29.64 5.34 L 29.55 5.34 L 29.43 5.34 L 27.88 5.5 L 26.35 5.94 L 25.16 6.52 L 25.09 6.57 L 25.05 6.63 L 25.05 6.7 L 25.08 6.77 L 31.3 14.24 Z"
    id="a"></path>
  <path
    d="M 74.12 9.07 L 74.08 9.01 L 74.02 8.98 L 73.95 8.99 L 73.88 9.03 L 65.14 16.5 L 65.07 16.57 L 65.01 16.67 L 64.96 16.77 L 64.93 16.86 L 59.54 46.6 L 59.53 46.69 L 59.54 46.79 L 59.58 46.89 L 59.62 46.96 L 63.05 51.18 L 63.11 51.23 L 63.19 51.25 L 63.27 51.23 L 63.35 51.18 L 68.37 46.96 L 68.44 46.89 L 68.51 46.79 L 68.56 46.69 L 68.59 46.6 L 74.61 13.15 L 74.71 11.63 L 74.51 10.16 L 74.12 9.07 Z"
    id="b"></path>
  <path
    d="M 62.45 56.01 L 62.39 55.96 L 62.31 55.95 L 62.23 55.96 L 62.15 56.01 L 57.13 60.23 L 57.06 60.31 L 57 60.4 L 56.94 60.5 L 56.92 60.59 L 51.52 90.33 L 51.51 90.42 L 51.53 90.52 L 51.56 90.62 L 51.61 90.69 L 58.17 98.59 L 58.23 98.63 L 58.29 98.64 L 58.36 98.61 L 58.42 98.55 L 58.78 98.02 L 59.33 96.85 L 59.66 95.65 L 65.96 60.59 L 65.97 60.5 L 65.96 60.4 L 65.93 60.31 L 65.88 60.23 L 62.45 56.01 Z"
    id="c"></path>
  <path
    d="M 7.78 100.85 L 7.72 100.91 L 7.7 100.98 L 7.72 101.05 L 7.77 101.1 L 8.26 101.37 L 9.37 101.72 L 10.56 101.85 L 52.22 101.85 L 52.32 101.85 L 52.43 101.85 L 52.55 101.84 L 52.64 101.83 L 53.45 101.75 L 53.55 101.74 L 53.66 101.72 L 53.78 101.7 L 53.87 101.67 L 54.67 101.44 L 54.77 101.41 L 54.88 101.37 L 54.99 101.32 L 55.08 101.28 L 55.46 101.1 L 55.53 101.05 L 55.56 100.98 L 55.57 100.91 L 55.53 100.85 L 48.96 92.95 L 48.89 92.9 L 48.81 92.85 L 48.71 92.82 L 48.62 92.8 L 17.38 92.8 L 17.28 92.82 L 17.17 92.85 L 17.07 92.9 L 16.99 92.95 L 7.78 100.85 Z"
    id="d"></path>
  <path
    d="M 17.21 56.01 L 17.15 55.96 L 17.07 55.95 L 16.98 55.96 L 16.91 56.01 L 11.89 60.23 L 11.82 60.31 L 11.75 60.4 L 11.7 60.5 L 11.67 60.59 L 5.39 95.53 L 5.38 95.65 L 5.3 96.85 L 5.46 98.02 L 5.64 98.55 L 5.68 98.61 L 5.74 98.64 L 5.81 98.63 L 5.89 98.59 L 15.12 90.69 L 15.18 90.62 L 15.25 90.52 L 15.3 90.42 L 15.33 90.33 L 20.72 60.59 L 20.73 60.5 L 20.71 60.4 L 20.68 60.31 L 20.64 60.23 L 17.21 56.01 Z"
    id="e"></path>
  <path
    d="M 22.45 9.03 L 22.39 8.99 L 22.32 8.98 L 22.25 9.01 L 22.19 9.07 L 21.43 10.17 L 20.74 11.63 L 20.33 13.15 L 14.3 46.6 L 14.29 46.69 L 14.3 46.79 L 14.33 46.89 L 14.38 46.96 L 17.81 51.18 L 17.87 51.23 L 17.95 51.25 L 18.03 51.23 L 18.11 51.18 L 23.13 46.96 L 23.2 46.89 L 23.26 46.79 L 23.32 46.69 L 23.34 46.6 L 28.74 16.86 L 28.74 16.77 L 28.73 16.67 L 28.7 16.57 L 28.65 16.5 L 22.45 9.03 Z"
    id="f"></path>
  <path
    d="M 19.95 53.45 L 19.89 53.51 L 19.86 53.6 L 19.86 53.68 L 19.89 53.74 L 23.33 57.97 L 23.39 58.03 L 23.47 58.08 L 23.57 58.11 L 23.66 58.12 L 54.91 58.12 L 55 58.11 L 55.11 58.08 L 55.21 58.03 L 55.29 57.97 L 60.31 53.74 L 60.37 53.68 L 60.4 53.6 L 60.4 53.51 L 60.37 53.45 L 56.93 49.22 L 56.87 49.16 L 56.79 49.12 L 56.69 49.08 L 56.6 49.07 L 25.35 49.07 L 25.26 49.08 L 25.15 49.12 L 25.05 49.16 L 24.97 49.22 L 19.95 53.45 Z"
    id="g"></path>
  <path
    d="M 65.71 97.33 C 65.71 94.8 67.76 92.75 70.29 92.75 C 72.82 92.75 74.87 94.8 74.87 97.33 C 74.87 99.86 72.82 101.9 70.29 101.9 C 67.76 101.9 65.71 99.86 65.71 97.33 Z"
    id="p"></path>
</svg>
